<mxfile host="app.diagrams.net" agent="Mozilla/5.0 (Windows NT 10.0; Win64; x64) AppleWebKit/537.36 (KHTML, like Gecko) Chrome/138.0.0.0 Safari/537.36" version="28.0.4" pages="2">
  <diagram name="use_case_diagram" id="9S_uObDpqWZidb8o8KU6">
    <mxGraphModel dx="1426" dy="1925" grid="1" gridSize="10" guides="1" tooltips="1" connect="1" arrows="1" fold="1" page="1" pageScale="1" pageWidth="850" pageHeight="1100" math="0" shadow="0">
      <root>
        <mxCell id="0" />
        <mxCell id="1" parent="0" />
        <mxCell id="ApfsajD3rpB8uELbAdHa-3" value="User&lt;div&gt;&lt;br&gt;&lt;/div&gt;" style="shape=umlActor;verticalLabelPosition=bottom;verticalAlign=top;html=1;outlineConnect=0;" parent="1" vertex="1">
          <mxGeometry x="40" y="240" width="30" height="60" as="geometry" />
        </mxCell>
        <mxCell id="ApfsajD3rpB8uELbAdHa-4" value="insert&amp;nbsp;&lt;div&gt;new transaction&lt;/div&gt;" style="ellipse;whiteSpace=wrap;html=1;" parent="1" vertex="1">
          <mxGeometry x="140" y="102" width="120" height="80" as="geometry" />
        </mxCell>
        <mxCell id="ApfsajD3rpB8uELbAdHa-5" value="&lt;div&gt;Transaction Database&lt;/div&gt;&lt;div&gt;&lt;br&gt;&lt;/div&gt;" style="shape=umlActor;verticalLabelPosition=bottom;verticalAlign=top;html=1;outlineConnect=0;" parent="1" vertex="1">
          <mxGeometry x="870" y="300" width="30" height="60" as="geometry" />
        </mxCell>
        <mxCell id="ApfsajD3rpB8uELbAdHa-11" value="search a transaction" style="ellipse;whiteSpace=wrap;html=1;" parent="1" vertex="1">
          <mxGeometry x="130" y="340" width="120" height="80" as="geometry" />
        </mxCell>
        <mxCell id="ApfsajD3rpB8uELbAdHa-13" value="update transaction" style="ellipse;whiteSpace=wrap;html=1;" parent="1" vertex="1">
          <mxGeometry x="530" y="90" width="120" height="80" as="geometry" />
        </mxCell>
        <mxCell id="ApfsajD3rpB8uELbAdHa-16" value="" style="endArrow=classic;html=1;rounded=0;entryX=0;entryY=0.5;entryDx=0;entryDy=0;endFill=1;" parent="1" target="ApfsajD3rpB8uELbAdHa-4" edge="1">
          <mxGeometry width="50" height="50" relative="1" as="geometry">
            <mxPoint x="60" y="230" as="sourcePoint" />
            <mxPoint x="380" y="330" as="targetPoint" />
          </mxGeometry>
        </mxCell>
        <mxCell id="ApfsajD3rpB8uELbAdHa-17" value="" style="endArrow=classicThin;html=1;rounded=0;entryX=0;entryY=0.5;entryDx=0;entryDy=0;endFill=1;" parent="1" source="ApfsajD3rpB8uELbAdHa-3" target="ApfsajD3rpB8uELbAdHa-11" edge="1">
          <mxGeometry width="50" height="50" relative="1" as="geometry">
            <mxPoint x="150" y="300" as="sourcePoint" />
            <mxPoint x="300" y="300" as="targetPoint" />
          </mxGeometry>
        </mxCell>
        <mxCell id="ApfsajD3rpB8uELbAdHa-21" value="show&amp;nbsp;&lt;div&gt;transaction&lt;/div&gt;&lt;div&gt;form&lt;/div&gt;" style="ellipse;whiteSpace=wrap;html=1;" parent="1" vertex="1">
          <mxGeometry x="340" y="10" width="120" height="80" as="geometry" />
        </mxCell>
        <mxCell id="ApfsajD3rpB8uELbAdHa-24" value="" style="endArrow=classic;dashed=1;html=1;rounded=0;entryX=0;entryY=0.5;entryDx=0;entryDy=0;exitX=1;exitY=0.5;exitDx=0;exitDy=0;endFill=1;" parent="1" source="ApfsajD3rpB8uELbAdHa-4" target="ApfsajD3rpB8uELbAdHa-21" edge="1">
          <mxGeometry width="50" height="50" relative="1" as="geometry">
            <mxPoint x="340" y="298" as="sourcePoint" />
            <mxPoint x="420" y="170" as="targetPoint" />
          </mxGeometry>
        </mxCell>
        <mxCell id="ApfsajD3rpB8uELbAdHa-25" value="&amp;lt;&amp;lt;include&amp;gt;&amp;gt;" style="edgeLabel;html=1;align=center;verticalAlign=middle;resizable=0;points=[];" parent="ApfsajD3rpB8uELbAdHa-24" vertex="1" connectable="0">
          <mxGeometry x="-0.0171" relative="1" as="geometry">
            <mxPoint y="-1" as="offset" />
          </mxGeometry>
        </mxCell>
        <mxCell id="ApfsajD3rpB8uELbAdHa-28" value="send transaction&lt;div&gt;data&lt;/div&gt;" style="ellipse;whiteSpace=wrap;html=1;" parent="1" vertex="1">
          <mxGeometry x="530" width="120" height="80" as="geometry" />
        </mxCell>
        <mxCell id="ApfsajD3rpB8uELbAdHa-30" value="" style="endArrow=none;dashed=1;html=1;rounded=0;entryX=0;entryY=0.5;entryDx=0;entryDy=0;exitX=1;exitY=0.5;exitDx=0;exitDy=0;endFill=0;startArrow=classic;startFill=1;" parent="1" source="ApfsajD3rpB8uELbAdHa-21" target="ApfsajD3rpB8uELbAdHa-28" edge="1">
          <mxGeometry width="50" height="50" relative="1" as="geometry">
            <mxPoint x="480" y="330" as="sourcePoint" />
            <mxPoint x="610" y="170" as="targetPoint" />
          </mxGeometry>
        </mxCell>
        <mxCell id="ApfsajD3rpB8uELbAdHa-32" value="&amp;nbsp;&amp;lt;&amp;lt;extend&amp;gt;&amp;gt;" style="edgeLabel;html=1;align=center;verticalAlign=middle;resizable=0;points=[];" parent="ApfsajD3rpB8uELbAdHa-30" vertex="1" connectable="0">
          <mxGeometry x="-0.5237" y="-2" relative="1" as="geometry">
            <mxPoint x="19" y="6" as="offset" />
          </mxGeometry>
        </mxCell>
        <mxCell id="ApfsajD3rpB8uELbAdHa-33" value="" style="endArrow=classic;html=1;rounded=0;endFill=1;exitX=1;exitY=0.5;exitDx=0;exitDy=0;" parent="1" source="ApfsajD3rpB8uELbAdHa-28" edge="1">
          <mxGeometry width="50" height="50" relative="1" as="geometry">
            <mxPoint x="110" y="260" as="sourcePoint" />
            <mxPoint x="870" y="270" as="targetPoint" />
          </mxGeometry>
        </mxCell>
        <mxCell id="ApfsajD3rpB8uELbAdHa-38" value="delete transaction" style="ellipse;whiteSpace=wrap;html=1;" parent="1" vertex="1">
          <mxGeometry x="530" y="182" width="120" height="80" as="geometry" />
        </mxCell>
        <mxCell id="ApfsajD3rpB8uELbAdHa-47" value="" style="endArrow=none;dashed=1;html=1;rounded=0;exitX=1;exitY=1;exitDx=0;exitDy=0;endFill=0;startArrow=classic;startFill=1;" parent="1" source="ApfsajD3rpB8uELbAdHa-21" target="ApfsajD3rpB8uELbAdHa-13" edge="1">
          <mxGeometry width="50" height="50" relative="1" as="geometry">
            <mxPoint x="450" y="110" as="sourcePoint" />
            <mxPoint x="540" y="120" as="targetPoint" />
          </mxGeometry>
        </mxCell>
        <mxCell id="ApfsajD3rpB8uELbAdHa-48" value="&amp;nbsp;&amp;lt;&amp;lt;extend&amp;gt;&amp;gt;" style="edgeLabel;html=1;align=center;verticalAlign=middle;resizable=0;points=[];" parent="ApfsajD3rpB8uELbAdHa-47" vertex="1" connectable="0">
          <mxGeometry x="-0.5237" y="-2" relative="1" as="geometry">
            <mxPoint x="19" y="6" as="offset" />
          </mxGeometry>
        </mxCell>
        <mxCell id="ApfsajD3rpB8uELbAdHa-49" value="" style="endArrow=none;dashed=1;html=1;rounded=0;exitX=0.5;exitY=1;exitDx=0;exitDy=0;endFill=0;startArrow=classic;startFill=1;entryX=0;entryY=0.5;entryDx=0;entryDy=0;" parent="1" source="ApfsajD3rpB8uELbAdHa-21" target="ApfsajD3rpB8uELbAdHa-38" edge="1">
          <mxGeometry width="50" height="50" relative="1" as="geometry">
            <mxPoint x="520" y="160" as="sourcePoint" />
            <mxPoint x="530" y="260" as="targetPoint" />
          </mxGeometry>
        </mxCell>
        <mxCell id="ApfsajD3rpB8uELbAdHa-50" value="&amp;nbsp;&amp;lt;&amp;lt;extend&amp;gt;&amp;gt;" style="edgeLabel;html=1;align=center;verticalAlign=middle;resizable=0;points=[];" parent="ApfsajD3rpB8uELbAdHa-49" vertex="1" connectable="0">
          <mxGeometry x="-0.5237" y="-2" relative="1" as="geometry">
            <mxPoint x="19" y="6" as="offset" />
          </mxGeometry>
        </mxCell>
        <mxCell id="ApfsajD3rpB8uELbAdHa-51" value="" style="endArrow=classic;html=1;rounded=0;endFill=1;exitX=1;exitY=0.5;exitDx=0;exitDy=0;" parent="1" source="ApfsajD3rpB8uELbAdHa-13" edge="1">
          <mxGeometry width="50" height="50" relative="1" as="geometry">
            <mxPoint x="740" y="80" as="sourcePoint" />
            <mxPoint x="860" y="270" as="targetPoint" />
          </mxGeometry>
        </mxCell>
        <mxCell id="ApfsajD3rpB8uELbAdHa-53" value="" style="endArrow=classic;html=1;rounded=0;endFill=1;exitX=1;exitY=0.5;exitDx=0;exitDy=0;" parent="1" source="ApfsajD3rpB8uELbAdHa-38" edge="1">
          <mxGeometry width="50" height="50" relative="1" as="geometry">
            <mxPoint x="720" y="260" as="sourcePoint" />
            <mxPoint x="860" y="280" as="targetPoint" />
          </mxGeometry>
        </mxCell>
        <mxCell id="ApfsajD3rpB8uELbAdHa-55" value="list searched transaction" style="ellipse;whiteSpace=wrap;html=1;" parent="1" vertex="1">
          <mxGeometry x="250" y="200" width="120" height="80" as="geometry" />
        </mxCell>
        <mxCell id="ApfsajD3rpB8uELbAdHa-56" value="" style="endArrow=classic;dashed=1;html=1;rounded=0;entryX=0;entryY=1;entryDx=0;entryDy=0;exitX=0.5;exitY=0;exitDx=0;exitDy=0;endFill=1;" parent="1" source="ApfsajD3rpB8uELbAdHa-11" target="ApfsajD3rpB8uELbAdHa-55" edge="1">
          <mxGeometry width="50" height="50" relative="1" as="geometry">
            <mxPoint x="160" y="340" as="sourcePoint" />
            <mxPoint x="240" y="248" as="targetPoint" />
          </mxGeometry>
        </mxCell>
        <mxCell id="ApfsajD3rpB8uELbAdHa-57" value="&amp;lt;&amp;lt;include&amp;gt;&amp;gt;" style="edgeLabel;html=1;align=center;verticalAlign=middle;resizable=0;points=[];" parent="ApfsajD3rpB8uELbAdHa-56" vertex="1" connectable="0">
          <mxGeometry x="-0.0171" relative="1" as="geometry">
            <mxPoint y="-1" as="offset" />
          </mxGeometry>
        </mxCell>
        <mxCell id="ApfsajD3rpB8uELbAdHa-58" value="" style="endArrow=none;dashed=1;html=1;rounded=0;entryX=0;entryY=1;entryDx=0;entryDy=0;exitX=0.5;exitY=0;exitDx=0;exitDy=0;endFill=0;fontStyle=1;startArrow=classic;startFill=1;" parent="1" source="ApfsajD3rpB8uELbAdHa-55" target="ApfsajD3rpB8uELbAdHa-21" edge="1">
          <mxGeometry width="50" height="50" relative="1" as="geometry">
            <mxPoint x="370" y="232" as="sourcePoint" />
            <mxPoint x="450" y="140" as="targetPoint" />
          </mxGeometry>
        </mxCell>
        <mxCell id="ApfsajD3rpB8uELbAdHa-59" value="&amp;lt;&amp;lt;extend&amp;gt;&amp;gt;" style="edgeLabel;html=1;align=center;verticalAlign=middle;resizable=0;points=[];" parent="ApfsajD3rpB8uELbAdHa-58" vertex="1" connectable="0">
          <mxGeometry x="-0.0171" relative="1" as="geometry">
            <mxPoint y="-1" as="offset" />
          </mxGeometry>
        </mxCell>
        <mxCell id="ApfsajD3rpB8uELbAdHa-62" value="" style="endArrow=classic;dashed=1;html=1;rounded=0;entryX=0;entryY=0;entryDx=0;entryDy=0;exitX=1;exitY=1;exitDx=0;exitDy=0;endFill=1;" parent="1" source="ApfsajD3rpB8uELbAdHa-55" target="ApfsajD3rpB8uELbAdHa-61" edge="1">
          <mxGeometry width="50" height="50" relative="1" as="geometry">
            <mxPoint x="360" y="432" as="sourcePoint" />
            <mxPoint x="438" y="360" as="targetPoint" />
          </mxGeometry>
        </mxCell>
        <mxCell id="ApfsajD3rpB8uELbAdHa-63" value="&amp;lt;&amp;lt;include&amp;gt;&amp;gt;" style="edgeLabel;html=1;align=center;verticalAlign=middle;resizable=0;points=[];" parent="ApfsajD3rpB8uELbAdHa-62" vertex="1" connectable="0">
          <mxGeometry x="-0.0171" relative="1" as="geometry">
            <mxPoint y="-1" as="offset" />
          </mxGeometry>
        </mxCell>
        <mxCell id="ApfsajD3rpB8uELbAdHa-64" value="" style="endArrow=classic;html=1;rounded=0;endFill=1;exitX=1;exitY=0.5;exitDx=0;exitDy=0;" parent="1" source="ApfsajD3rpB8uELbAdHa-61" edge="1">
          <mxGeometry width="50" height="50" relative="1" as="geometry">
            <mxPoint x="680" y="332" as="sourcePoint" />
            <mxPoint x="830" y="370" as="targetPoint" />
          </mxGeometry>
        </mxCell>
        <mxCell id="ApfsajD3rpB8uELbAdHa-81" value="" style="group" parent="1" vertex="1" connectable="0">
          <mxGeometry x="80" y="380" width="770" height="370" as="geometry" />
        </mxCell>
        <mxCell id="ApfsajD3rpB8uELbAdHa-66" value="create account" style="ellipse;whiteSpace=wrap;html=1;" parent="ApfsajD3rpB8uELbAdHa-81" vertex="1">
          <mxGeometry x="90" y="290" width="120" height="80" as="geometry" />
        </mxCell>
        <mxCell id="ApfsajD3rpB8uELbAdHa-68" value="show&amp;nbsp;&lt;div&gt;account&lt;/div&gt;&lt;div&gt;form&lt;/div&gt;" style="ellipse;whiteSpace=wrap;html=1;" parent="ApfsajD3rpB8uELbAdHa-81" vertex="1">
          <mxGeometry x="320" y="280" width="120" height="80" as="geometry" />
        </mxCell>
        <mxCell id="ApfsajD3rpB8uELbAdHa-70" value="" style="endArrow=classic;dashed=1;html=1;rounded=0;entryX=0;entryY=0.5;entryDx=0;entryDy=0;exitX=1;exitY=0.5;exitDx=0;exitDy=0;endFill=1;" parent="ApfsajD3rpB8uELbAdHa-81" source="ApfsajD3rpB8uELbAdHa-66" target="ApfsajD3rpB8uELbAdHa-68" edge="1">
          <mxGeometry width="50" height="50" relative="1" as="geometry">
            <mxPoint x="240" y="260" as="sourcePoint" />
            <mxPoint x="350" y="250" as="targetPoint" />
          </mxGeometry>
        </mxCell>
        <mxCell id="ApfsajD3rpB8uELbAdHa-71" value="&amp;lt;&amp;lt;include&amp;gt;&amp;gt;" style="edgeLabel;html=1;align=center;verticalAlign=middle;resizable=0;points=[];" parent="ApfsajD3rpB8uELbAdHa-70" vertex="1" connectable="0">
          <mxGeometry x="-0.0171" relative="1" as="geometry">
            <mxPoint y="-1" as="offset" />
          </mxGeometry>
        </mxCell>
        <mxCell id="ApfsajD3rpB8uELbAdHa-72" value="send account data" style="ellipse;whiteSpace=wrap;html=1;" parent="ApfsajD3rpB8uELbAdHa-81" vertex="1">
          <mxGeometry x="550" y="180" width="120" height="80" as="geometry" />
        </mxCell>
        <mxCell id="ApfsajD3rpB8uELbAdHa-74" value="" style="endArrow=none;dashed=1;html=1;rounded=0;entryX=0;entryY=0.5;entryDx=0;entryDy=0;exitX=1;exitY=0;exitDx=0;exitDy=0;endFill=0;startArrow=classic;startFill=1;" parent="ApfsajD3rpB8uELbAdHa-81" source="ApfsajD3rpB8uELbAdHa-68" target="ApfsajD3rpB8uELbAdHa-72" edge="1">
          <mxGeometry width="50" height="50" relative="1" as="geometry">
            <mxPoint x="320" y="340" as="sourcePoint" />
            <mxPoint x="430" y="330" as="targetPoint" />
          </mxGeometry>
        </mxCell>
        <mxCell id="ApfsajD3rpB8uELbAdHa-77" value="&amp;lt;&amp;lt;extend&amp;gt;&amp;gt;" style="edgeLabel;html=1;align=center;verticalAlign=middle;resizable=0;points=[];" parent="ApfsajD3rpB8uELbAdHa-74" vertex="1" connectable="0">
          <mxGeometry x="0.0114" y="-1" relative="1" as="geometry">
            <mxPoint as="offset" />
          </mxGeometry>
        </mxCell>
        <mxCell id="ApfsajD3rpB8uELbAdHa-78" value="" style="endArrow=classic;html=1;rounded=0;endFill=1;exitX=1;exitY=0;exitDx=0;exitDy=0;" parent="ApfsajD3rpB8uELbAdHa-81" source="ApfsajD3rpB8uELbAdHa-72" edge="1">
          <mxGeometry width="50" height="50" relative="1" as="geometry">
            <mxPoint x="620" y="330" as="sourcePoint" />
            <mxPoint x="860" y="-30" as="targetPoint" />
            <Array as="points">
              <mxPoint x="940" y="220" />
              <mxPoint x="950" y="20" />
            </Array>
          </mxGeometry>
        </mxCell>
        <mxCell id="ApfsajD3rpB8uELbAdHa-95" style="edgeStyle=orthogonalEdgeStyle;rounded=0;orthogonalLoop=1;jettySize=auto;html=1;exitX=1;exitY=0.5;exitDx=0;exitDy=0;entryX=0;entryY=0.5;entryDx=0;entryDy=0;dashed=1;" parent="ApfsajD3rpB8uELbAdHa-81" source="ApfsajD3rpB8uELbAdHa-87" target="ApfsajD3rpB8uELbAdHa-94" edge="1">
          <mxGeometry relative="1" as="geometry" />
        </mxCell>
        <mxCell id="ApfsajD3rpB8uELbAdHa-96" value="&amp;lt;&amp;lt;include&amp;gt;&amp;gt;" style="edgeLabel;html=1;align=center;verticalAlign=middle;resizable=0;points=[];" parent="ApfsajD3rpB8uELbAdHa-95" vertex="1" connectable="0">
          <mxGeometry x="-0.2148" y="4" relative="1" as="geometry">
            <mxPoint as="offset" />
          </mxGeometry>
        </mxCell>
        <mxCell id="ApfsajD3rpB8uELbAdHa-87" value="generate report" style="ellipse;whiteSpace=wrap;html=1;" parent="ApfsajD3rpB8uELbAdHa-81" vertex="1">
          <mxGeometry x="325" y="-20" width="120" height="70" as="geometry" />
        </mxCell>
        <mxCell id="ApfsajD3rpB8uELbAdHa-98" style="edgeStyle=orthogonalEdgeStyle;rounded=0;orthogonalLoop=1;jettySize=auto;html=1;exitX=1;exitY=0.5;exitDx=0;exitDy=0;" parent="ApfsajD3rpB8uELbAdHa-81" source="ApfsajD3rpB8uELbAdHa-91" edge="1">
          <mxGeometry relative="1" as="geometry">
            <mxPoint x="820" y="116" as="targetPoint" />
          </mxGeometry>
        </mxCell>
        <mxCell id="ApfsajD3rpB8uELbAdHa-91" value="ask llm for a description" style="ellipse;whiteSpace=wrap;html=1;" parent="ApfsajD3rpB8uELbAdHa-81" vertex="1">
          <mxGeometry x="460" y="80" width="120" height="70" as="geometry" />
        </mxCell>
        <mxCell id="ApfsajD3rpB8uELbAdHa-92" value="" style="endArrow=classic;dashed=1;html=1;rounded=0;entryX=0;entryY=0.5;entryDx=0;entryDy=0;exitX=0.5;exitY=1;exitDx=0;exitDy=0;endFill=1;fontStyle=1;startArrow=none;startFill=0;" parent="ApfsajD3rpB8uELbAdHa-81" source="ApfsajD3rpB8uELbAdHa-87" target="ApfsajD3rpB8uELbAdHa-91" edge="1">
          <mxGeometry width="50" height="50" relative="1" as="geometry">
            <mxPoint x="400" y="10" as="sourcePoint" />
            <mxPoint x="505" y="115" as="targetPoint" />
          </mxGeometry>
        </mxCell>
        <mxCell id="ApfsajD3rpB8uELbAdHa-93" value="&amp;lt;&amp;lt;inlcude&amp;gt;&amp;gt;" style="edgeLabel;html=1;align=center;verticalAlign=middle;resizable=0;points=[];" parent="ApfsajD3rpB8uELbAdHa-92" vertex="1" connectable="0">
          <mxGeometry x="-0.0171" relative="1" as="geometry">
            <mxPoint y="-1" as="offset" />
          </mxGeometry>
        </mxCell>
        <mxCell id="ApfsajD3rpB8uELbAdHa-94" value="generate dashboard" style="ellipse;whiteSpace=wrap;html=1;" parent="ApfsajD3rpB8uELbAdHa-81" vertex="1">
          <mxGeometry x="580" width="120" height="70" as="geometry" />
        </mxCell>
        <mxCell id="ApfsajD3rpB8uELbAdHa-100" style="edgeStyle=orthogonalEdgeStyle;rounded=0;orthogonalLoop=1;jettySize=auto;html=1;exitX=0.5;exitY=0;exitDx=0;exitDy=0;entryX=0;entryY=1;entryDx=0;entryDy=0;strokeColor=none;dashed=1;" parent="ApfsajD3rpB8uELbAdHa-81" source="ApfsajD3rpB8uELbAdHa-99" target="ApfsajD3rpB8uELbAdHa-87" edge="1">
          <mxGeometry relative="1" as="geometry" />
        </mxCell>
        <mxCell id="ApfsajD3rpB8uELbAdHa-101" style="edgeStyle=orthogonalEdgeStyle;rounded=0;orthogonalLoop=1;jettySize=auto;html=1;exitX=0.5;exitY=0;exitDx=0;exitDy=0;entryX=0;entryY=1;entryDx=0;entryDy=0;dashed=1;" parent="ApfsajD3rpB8uELbAdHa-81" source="ApfsajD3rpB8uELbAdHa-99" target="ApfsajD3rpB8uELbAdHa-87" edge="1">
          <mxGeometry relative="1" as="geometry" />
        </mxCell>
        <mxCell id="ApfsajD3rpB8uELbAdHa-102" value="&amp;lt;&amp;lt;extend&amp;gt;&amp;gt;" style="edgeLabel;html=1;align=center;verticalAlign=middle;resizable=0;points=[];" parent="ApfsajD3rpB8uELbAdHa-101" vertex="1" connectable="0">
          <mxGeometry x="-0.1758" y="-1" relative="1" as="geometry">
            <mxPoint y="1" as="offset" />
          </mxGeometry>
        </mxCell>
        <mxCell id="ApfsajD3rpB8uELbAdHa-99" value="download report" style="ellipse;whiteSpace=wrap;html=1;" parent="ApfsajD3rpB8uELbAdHa-81" vertex="1">
          <mxGeometry x="220" y="80" width="120" height="70" as="geometry" />
        </mxCell>
        <mxCell id="ApfsajD3rpB8uELbAdHa-61" value="query database" style="ellipse;whiteSpace=wrap;html=1;" parent="1" vertex="1">
          <mxGeometry x="410" y="250" width="120" height="80" as="geometry" />
        </mxCell>
        <mxCell id="ApfsajD3rpB8uELbAdHa-89" value="" style="endArrow=none;dashed=1;html=1;rounded=0;entryX=0;entryY=0.5;entryDx=0;entryDy=0;exitX=0.5;exitY=1;exitDx=0;exitDy=0;endFill=0;fontStyle=1;startArrow=classic;startFill=1;" parent="1" source="ApfsajD3rpB8uELbAdHa-55" target="ApfsajD3rpB8uELbAdHa-87" edge="1">
          <mxGeometry width="50" height="50" relative="1" as="geometry">
            <mxPoint x="400" y="352" as="sourcePoint" />
            <mxPoint x="448" y="230" as="targetPoint" />
          </mxGeometry>
        </mxCell>
        <mxCell id="ApfsajD3rpB8uELbAdHa-90" value="&amp;lt;&amp;lt;extend&amp;gt;&amp;gt;" style="edgeLabel;html=1;align=center;verticalAlign=middle;resizable=0;points=[];" parent="ApfsajD3rpB8uELbAdHa-89" vertex="1" connectable="0">
          <mxGeometry x="-0.0171" relative="1" as="geometry">
            <mxPoint y="-1" as="offset" />
          </mxGeometry>
        </mxCell>
        <mxCell id="ApfsajD3rpB8uELbAdHa-97" value="llm" style="shape=umlActor;verticalLabelPosition=bottom;verticalAlign=top;html=1;outlineConnect=0;" parent="1" vertex="1">
          <mxGeometry x="910" y="460" width="30" height="60" as="geometry" />
        </mxCell>
        <mxCell id="ApfsajD3rpB8uELbAdHa-67" value="" style="endArrow=classicThin;html=1;rounded=0;entryX=0;entryY=0.5;entryDx=0;entryDy=0;endFill=1;exitX=1;exitY=1;exitDx=0;exitDy=0;exitPerimeter=0;" parent="1" source="ApfsajD3rpB8uELbAdHa-3" target="ApfsajD3rpB8uELbAdHa-66" edge="1">
          <mxGeometry width="50" height="50" relative="1" as="geometry">
            <mxPoint x="50" y="370" as="sourcePoint" />
            <mxPoint x="210" y="638" as="targetPoint" />
          </mxGeometry>
        </mxCell>
        <mxCell id="ApfsajD3rpB8uELbAdHa-109" style="edgeStyle=orthogonalEdgeStyle;rounded=0;orthogonalLoop=1;jettySize=auto;html=1;exitX=0.5;exitY=0;exitDx=0;exitDy=0;entryX=0;entryY=0.5;entryDx=0;entryDy=0;dashed=1;" parent="1" source="ApfsajD3rpB8uELbAdHa-104" target="ApfsajD3rpB8uELbAdHa-106" edge="1">
          <mxGeometry relative="1" as="geometry" />
        </mxCell>
        <mxCell id="ApfsajD3rpB8uELbAdHa-110" value="&amp;lt;&amp;lt;include&amp;gt;&amp;gt;" style="edgeLabel;html=1;align=center;verticalAlign=middle;resizable=0;points=[];" parent="ApfsajD3rpB8uELbAdHa-109" vertex="1" connectable="0">
          <mxGeometry x="0.0778" y="-1" relative="1" as="geometry">
            <mxPoint x="1" as="offset" />
          </mxGeometry>
        </mxCell>
        <mxCell id="ApfsajD3rpB8uELbAdHa-112" value="&amp;lt;&amp;lt;include&amp;gt;&amp;gt;&lt;div&gt;&lt;br&gt;&lt;/div&gt;" style="edgeStyle=orthogonalEdgeStyle;rounded=0;orthogonalLoop=1;jettySize=auto;html=1;exitX=1;exitY=0.5;exitDx=0;exitDy=0;entryX=0.5;entryY=0;entryDx=0;entryDy=0;dashed=1;" parent="1" source="ApfsajD3rpB8uELbAdHa-114" target="ApfsajD3rpB8uELbAdHa-28" edge="1">
          <mxGeometry relative="1" as="geometry" />
        </mxCell>
        <mxCell id="ApfsajD3rpB8uELbAdHa-117" value="&amp;lt;&amp;lt;include&amp;gt;&amp;gt;" style="edgeStyle=orthogonalEdgeStyle;rounded=0;orthogonalLoop=1;jettySize=auto;html=1;exitX=1;exitY=0.5;exitDx=0;exitDy=0;entryX=0;entryY=0.5;entryDx=0;entryDy=0;dashed=1;" parent="1" source="ApfsajD3rpB8uELbAdHa-104" target="ApfsajD3rpB8uELbAdHa-114" edge="1">
          <mxGeometry relative="1" as="geometry" />
        </mxCell>
        <mxCell id="ApfsajD3rpB8uELbAdHa-104" value="insert&amp;nbsp;&lt;div&gt;transaction from file&lt;/div&gt;" style="ellipse;whiteSpace=wrap;html=1;" parent="1" vertex="1">
          <mxGeometry x="150" y="-120" width="120" height="80" as="geometry" />
        </mxCell>
        <mxCell id="ApfsajD3rpB8uELbAdHa-105" value="" style="endArrow=classic;html=1;rounded=0;entryX=0;entryY=0.5;entryDx=0;entryDy=0;endFill=1;exitX=0.5;exitY=0;exitDx=0;exitDy=0;exitPerimeter=0;" parent="1" source="ApfsajD3rpB8uELbAdHa-3" target="ApfsajD3rpB8uELbAdHa-104" edge="1">
          <mxGeometry width="50" height="50" relative="1" as="geometry">
            <mxPoint x="110" y="258" as="sourcePoint" />
            <mxPoint x="190" y="170" as="targetPoint" />
            <Array as="points">
              <mxPoint x="55" y="-80" />
            </Array>
          </mxGeometry>
        </mxCell>
        <mxCell id="ApfsajD3rpB8uELbAdHa-106" value="extract data from file" style="ellipse;whiteSpace=wrap;html=1;" parent="1" vertex="1">
          <mxGeometry x="280" y="-210" width="120" height="80" as="geometry" />
        </mxCell>
        <mxCell id="ApfsajD3rpB8uELbAdHa-114" value="send multiple transaction&lt;div&gt;data&lt;/div&gt;" style="ellipse;whiteSpace=wrap;html=1;" parent="1" vertex="1">
          <mxGeometry x="390" y="-120" width="120" height="80" as="geometry" />
        </mxCell>
      </root>
    </mxGraphModel>
  </diagram>
  <diagram id="QelM2URJ73nDo9OkgHju" name="er-diagram">
    <mxGraphModel dx="1678" dy="971" grid="1" gridSize="10" guides="1" tooltips="1" connect="1" arrows="1" fold="1" page="1" pageScale="1" pageWidth="850" pageHeight="1100" math="0" shadow="0">
      <root>
        <mxCell id="0" />
        <mxCell id="1" parent="0" />
        <mxCell id="nQ1JPdh1V9zCmf0JBxJR-17" style="edgeStyle=orthogonalEdgeStyle;rounded=0;orthogonalLoop=1;jettySize=auto;html=1;exitX=0.25;exitY=0;exitDx=0;exitDy=0;entryX=1;entryY=0.5;entryDx=0;entryDy=0;endArrow=none;endFill=0;" edge="1" parent="1" source="nQ1JPdh1V9zCmf0JBxJR-11" target="nQ1JPdh1V9zCmf0JBxJR-12">
          <mxGeometry relative="1" as="geometry" />
        </mxCell>
        <mxCell id="nQ1JPdh1V9zCmf0JBxJR-18" style="edgeStyle=orthogonalEdgeStyle;rounded=0;orthogonalLoop=1;jettySize=auto;html=1;exitX=0.5;exitY=0;exitDx=0;exitDy=0;entryX=1;entryY=0.5;entryDx=0;entryDy=0;endArrow=none;endFill=0;" edge="1" parent="1" source="nQ1JPdh1V9zCmf0JBxJR-11" target="nQ1JPdh1V9zCmf0JBxJR-14">
          <mxGeometry relative="1" as="geometry">
            <Array as="points">
              <mxPoint x="255" y="180" />
            </Array>
          </mxGeometry>
        </mxCell>
        <mxCell id="nQ1JPdh1V9zCmf0JBxJR-11" value="User" style="html=1;whiteSpace=wrap;" vertex="1" parent="1">
          <mxGeometry x="200" y="290" width="110" height="50" as="geometry" />
        </mxCell>
        <mxCell id="nQ1JPdh1V9zCmf0JBxJR-12" value="password" style="ellipse;whiteSpace=wrap;html=1;align=center;" vertex="1" parent="1">
          <mxGeometry x="60" y="210" width="70" height="40" as="geometry" />
        </mxCell>
        <mxCell id="nQ1JPdh1V9zCmf0JBxJR-20" style="edgeStyle=orthogonalEdgeStyle;rounded=0;orthogonalLoop=1;jettySize=auto;html=1;exitX=1;exitY=0.5;exitDx=0;exitDy=0;entryX=0;entryY=0.25;entryDx=0;entryDy=0;endArrow=none;endFill=0;" edge="1" parent="1" source="nQ1JPdh1V9zCmf0JBxJR-13" target="nQ1JPdh1V9zCmf0JBxJR-11">
          <mxGeometry relative="1" as="geometry">
            <Array as="points">
              <mxPoint x="165" y="280" />
              <mxPoint x="165" y="303" />
            </Array>
          </mxGeometry>
        </mxCell>
        <mxCell id="nQ1JPdh1V9zCmf0JBxJR-13" value="Username" style="ellipse;whiteSpace=wrap;html=1;align=center;" vertex="1" parent="1">
          <mxGeometry x="60" y="260" width="70" height="40" as="geometry" />
        </mxCell>
        <mxCell id="nQ1JPdh1V9zCmf0JBxJR-14" value="&lt;u&gt;user_id&lt;/u&gt;" style="ellipse;whiteSpace=wrap;html=1;align=center;" vertex="1" parent="1">
          <mxGeometry x="60" y="160" width="70" height="40" as="geometry" />
        </mxCell>
        <mxCell id="nQ1JPdh1V9zCmf0JBxJR-22" style="edgeStyle=orthogonalEdgeStyle;rounded=0;orthogonalLoop=1;jettySize=auto;html=1;exitX=0.5;exitY=0;exitDx=0;exitDy=0;entryX=0;entryY=0.5;entryDx=0;entryDy=0;endArrow=none;endFill=0;" edge="1" parent="1" source="nQ1JPdh1V9zCmf0JBxJR-23" target="nQ1JPdh1V9zCmf0JBxJR-30">
          <mxGeometry relative="1" as="geometry">
            <Array as="points">
              <mxPoint x="585.1" y="145" />
            </Array>
            <mxPoint x="660.1000000000073" y="131" as="targetPoint" />
          </mxGeometry>
        </mxCell>
        <mxCell id="nQ1JPdh1V9zCmf0JBxJR-29" style="edgeStyle=orthogonalEdgeStyle;rounded=0;orthogonalLoop=1;jettySize=auto;html=1;exitX=1;exitY=0;exitDx=0;exitDy=0;entryX=0;entryY=0.5;entryDx=0;entryDy=0;endArrow=none;endFill=0;" edge="1" parent="1" source="nQ1JPdh1V9zCmf0JBxJR-23" target="nQ1JPdh1V9zCmf0JBxJR-26">
          <mxGeometry relative="1" as="geometry">
            <Array as="points">
              <mxPoint x="640.1" y="195" />
            </Array>
          </mxGeometry>
        </mxCell>
        <mxCell id="nQ1JPdh1V9zCmf0JBxJR-33" style="edgeStyle=orthogonalEdgeStyle;rounded=0;orthogonalLoop=1;jettySize=auto;html=1;exitX=1;exitY=0.25;exitDx=0;exitDy=0;endArrow=none;endFill=0;" edge="1" parent="1" source="nQ1JPdh1V9zCmf0JBxJR-23" target="nQ1JPdh1V9zCmf0JBxJR-32">
          <mxGeometry relative="1" as="geometry">
            <Array as="points">
              <mxPoint x="690.1" y="284" />
              <mxPoint x="690.1" y="284" />
            </Array>
          </mxGeometry>
        </mxCell>
        <mxCell id="nQ1JPdh1V9zCmf0JBxJR-36" style="edgeStyle=orthogonalEdgeStyle;rounded=0;orthogonalLoop=1;jettySize=auto;html=1;exitX=1;exitY=0.75;exitDx=0;exitDy=0;endArrow=none;endFill=0;" edge="1" parent="1" source="nQ1JPdh1V9zCmf0JBxJR-23" target="nQ1JPdh1V9zCmf0JBxJR-34">
          <mxGeometry relative="1" as="geometry">
            <Array as="points">
              <mxPoint x="670.1" y="311" />
              <mxPoint x="670.1" y="311" />
            </Array>
          </mxGeometry>
        </mxCell>
        <mxCell id="nQ1JPdh1V9zCmf0JBxJR-37" style="edgeStyle=orthogonalEdgeStyle;rounded=0;orthogonalLoop=1;jettySize=auto;html=1;exitX=0.75;exitY=1;exitDx=0;exitDy=0;endArrow=none;endFill=0;entryX=0;entryY=0.5;entryDx=0;entryDy=0;" edge="1" parent="1" source="nQ1JPdh1V9zCmf0JBxJR-23" target="nQ1JPdh1V9zCmf0JBxJR-24">
          <mxGeometry relative="1" as="geometry" />
        </mxCell>
        <mxCell id="nQ1JPdh1V9zCmf0JBxJR-38" style="edgeStyle=orthogonalEdgeStyle;rounded=0;orthogonalLoop=1;jettySize=auto;html=1;exitX=1;exitY=1;exitDx=0;exitDy=0;entryX=0;entryY=0.5;entryDx=0;entryDy=0;endArrow=none;endFill=0;" edge="1" parent="1" source="nQ1JPdh1V9zCmf0JBxJR-23" target="nQ1JPdh1V9zCmf0JBxJR-35">
          <mxGeometry relative="1" as="geometry" />
        </mxCell>
        <mxCell id="nQ1JPdh1V9zCmf0JBxJR-23" value="money_transfer" style="html=1;whiteSpace=wrap;" vertex="1" parent="1">
          <mxGeometry x="520.1" y="270" width="110" height="55" as="geometry" />
        </mxCell>
        <mxCell id="nQ1JPdh1V9zCmf0JBxJR-24" value="user_id" style="ellipse;whiteSpace=wrap;html=1;align=center;" vertex="1" parent="1">
          <mxGeometry x="690.1" y="395" width="70" height="40" as="geometry" />
        </mxCell>
        <mxCell id="nQ1JPdh1V9zCmf0JBxJR-26" value="date" style="ellipse;whiteSpace=wrap;html=1;align=center;" vertex="1" parent="1">
          <mxGeometry x="690.1" y="175" width="70" height="40" as="geometry" />
        </mxCell>
        <mxCell id="nQ1JPdh1V9zCmf0JBxJR-30" value="transaction_id" style="ellipse;whiteSpace=wrap;html=1;align=center;fontStyle=4;" vertex="1" parent="1">
          <mxGeometry x="675.1" y="125" width="100" height="40" as="geometry" />
        </mxCell>
        <mxCell id="nQ1JPdh1V9zCmf0JBxJR-32" value="amount" style="ellipse;whiteSpace=wrap;html=1;align=center;" vertex="1" parent="1">
          <mxGeometry x="690.1" y="225" width="70" height="40" as="geometry" />
        </mxCell>
        <mxCell id="nQ1JPdh1V9zCmf0JBxJR-34" value="description" style="ellipse;whiteSpace=wrap;html=1;align=center;" vertex="1" parent="1">
          <mxGeometry x="690.1" y="295" width="70" height="40" as="geometry" />
        </mxCell>
        <mxCell id="nQ1JPdh1V9zCmf0JBxJR-35" value="category_id" style="ellipse;whiteSpace=wrap;html=1;align=center;" vertex="1" parent="1">
          <mxGeometry x="690.1" y="345" width="70" height="40" as="geometry" />
        </mxCell>
        <mxCell id="nQ1JPdh1V9zCmf0JBxJR-42" style="edgeStyle=orthogonalEdgeStyle;rounded=0;orthogonalLoop=1;jettySize=auto;html=1;exitX=1;exitY=0.75;exitDx=0;exitDy=0;endArrow=none;endFill=0;" edge="1" parent="1" source="nQ1JPdh1V9zCmf0JBxJR-45" target="nQ1JPdh1V9zCmf0JBxJR-50">
          <mxGeometry relative="1" as="geometry">
            <Array as="points">
              <mxPoint x="470" y="581" />
              <mxPoint x="470" y="581" />
            </Array>
          </mxGeometry>
        </mxCell>
        <mxCell id="nQ1JPdh1V9zCmf0JBxJR-55" style="edgeStyle=orthogonalEdgeStyle;rounded=0;orthogonalLoop=1;jettySize=auto;html=1;exitX=0.75;exitY=1;exitDx=0;exitDy=0;entryX=0;entryY=0.5;entryDx=0;entryDy=0;endArrow=none;endFill=0;" edge="1" parent="1" source="nQ1JPdh1V9zCmf0JBxJR-45" target="nQ1JPdh1V9zCmf0JBxJR-54">
          <mxGeometry relative="1" as="geometry" />
        </mxCell>
        <mxCell id="nQ1JPdh1V9zCmf0JBxJR-45" value="categories" style="html=1;whiteSpace=wrap;" vertex="1" parent="1">
          <mxGeometry x="320" y="550" width="110" height="55" as="geometry" />
        </mxCell>
        <mxCell id="nQ1JPdh1V9zCmf0JBxJR-50" value="description" style="ellipse;whiteSpace=wrap;html=1;align=center;" vertex="1" parent="1">
          <mxGeometry x="490" y="565" width="70" height="40" as="geometry" />
        </mxCell>
        <mxCell id="nQ1JPdh1V9zCmf0JBxJR-53" style="edgeStyle=orthogonalEdgeStyle;rounded=0;orthogonalLoop=1;jettySize=auto;html=1;exitX=0;exitY=0.5;exitDx=0;exitDy=0;entryX=0.5;entryY=1;entryDx=0;entryDy=0;endArrow=none;endFill=0;" edge="1" parent="1" source="nQ1JPdh1V9zCmf0JBxJR-52" target="nQ1JPdh1V9zCmf0JBxJR-45">
          <mxGeometry relative="1" as="geometry" />
        </mxCell>
        <mxCell id="nQ1JPdh1V9zCmf0JBxJR-52" value="&lt;u&gt;category_id&lt;/u&gt;" style="ellipse;whiteSpace=wrap;html=1;align=center;" vertex="1" parent="1">
          <mxGeometry x="490" y="665" width="70" height="40" as="geometry" />
        </mxCell>
        <mxCell id="nQ1JPdh1V9zCmf0JBxJR-54" value="name" style="ellipse;whiteSpace=wrap;html=1;align=center;" vertex="1" parent="1">
          <mxGeometry x="490" y="620" width="70" height="40" as="geometry" />
        </mxCell>
        <mxCell id="nQ1JPdh1V9zCmf0JBxJR-56" value="register" style="shape=rhombus;double=1;perimeter=rhombusPerimeter;whiteSpace=wrap;html=1;align=center;" vertex="1" parent="1">
          <mxGeometry x="350" y="230" width="120" height="60" as="geometry" />
        </mxCell>
        <mxCell id="nQ1JPdh1V9zCmf0JBxJR-57" value="describe" style="shape=rhombus;double=1;perimeter=rhombusPerimeter;whiteSpace=wrap;html=1;align=center;" vertex="1" parent="1">
          <mxGeometry x="410" y="400" width="120" height="60" as="geometry" />
        </mxCell>
        <mxCell id="nQ1JPdh1V9zCmf0JBxJR-59" value="" style="endArrow=none;html=1;rounded=0;dashed=1;dashPattern=1 2;exitX=0;exitY=0.5;exitDx=0;exitDy=0;entryX=1;entryY=0.5;entryDx=0;entryDy=0;" edge="1" parent="1" source="nQ1JPdh1V9zCmf0JBxJR-56" target="nQ1JPdh1V9zCmf0JBxJR-11">
          <mxGeometry relative="1" as="geometry">
            <mxPoint x="295" y="400" as="sourcePoint" />
            <mxPoint x="340" y="370" as="targetPoint" />
          </mxGeometry>
        </mxCell>
        <mxCell id="nQ1JPdh1V9zCmf0JBxJR-60" value="N" style="resizable=0;html=1;whiteSpace=wrap;align=right;verticalAlign=bottom;" connectable="0" vertex="1" parent="nQ1JPdh1V9zCmf0JBxJR-59">
          <mxGeometry x="1" relative="1" as="geometry">
            <mxPoint x="40" y="-5" as="offset" />
          </mxGeometry>
        </mxCell>
        <mxCell id="nQ1JPdh1V9zCmf0JBxJR-61" value="" style="endArrow=none;html=1;rounded=0;exitX=1;exitY=0.5;exitDx=0;exitDy=0;entryX=0;entryY=0.5;entryDx=0;entryDy=0;" edge="1" parent="1" source="nQ1JPdh1V9zCmf0JBxJR-56" target="nQ1JPdh1V9zCmf0JBxJR-23">
          <mxGeometry relative="1" as="geometry">
            <mxPoint x="470" y="430" as="sourcePoint" />
            <mxPoint x="630" y="430" as="targetPoint" />
          </mxGeometry>
        </mxCell>
        <mxCell id="nQ1JPdh1V9zCmf0JBxJR-62" value="1" style="resizable=0;html=1;whiteSpace=wrap;align=right;verticalAlign=bottom;" connectable="0" vertex="1" parent="nQ1JPdh1V9zCmf0JBxJR-61">
          <mxGeometry x="1" relative="1" as="geometry">
            <mxPoint x="-30" as="offset" />
          </mxGeometry>
        </mxCell>
        <mxCell id="nQ1JPdh1V9zCmf0JBxJR-67" value="" style="endArrow=none;html=1;rounded=0;dashed=1;dashPattern=1 2;entryX=0.25;entryY=1;entryDx=0;entryDy=0;exitX=0.5;exitY=0;exitDx=0;exitDy=0;" edge="1" parent="1" source="nQ1JPdh1V9zCmf0JBxJR-57" target="nQ1JPdh1V9zCmf0JBxJR-23">
          <mxGeometry relative="1" as="geometry">
            <mxPoint x="470" y="390" as="sourcePoint" />
            <mxPoint x="630" y="390" as="targetPoint" />
          </mxGeometry>
        </mxCell>
        <mxCell id="nQ1JPdh1V9zCmf0JBxJR-68" value="1" style="resizable=0;html=1;whiteSpace=wrap;align=right;verticalAlign=bottom;" connectable="0" vertex="1" parent="nQ1JPdh1V9zCmf0JBxJR-67">
          <mxGeometry x="1" relative="1" as="geometry">
            <mxPoint x="-18" y="55" as="offset" />
          </mxGeometry>
        </mxCell>
        <mxCell id="nQ1JPdh1V9zCmf0JBxJR-70" style="edgeStyle=orthogonalEdgeStyle;rounded=0;orthogonalLoop=1;jettySize=auto;html=1;exitX=0.5;exitY=1;exitDx=0;exitDy=0;entryX=0.25;entryY=0;entryDx=0;entryDy=0;endArrow=none;endFill=0;" edge="1" parent="1" source="nQ1JPdh1V9zCmf0JBxJR-69" target="nQ1JPdh1V9zCmf0JBxJR-23">
          <mxGeometry relative="1" as="geometry" />
        </mxCell>
        <mxCell id="nQ1JPdh1V9zCmf0JBxJR-69" value="incoming" style="ellipse;whiteSpace=wrap;html=1;align=center;" vertex="1" parent="1">
          <mxGeometry x="520.1" y="110" width="70" height="40" as="geometry" />
        </mxCell>
        <mxCell id="nQ1JPdh1V9zCmf0JBxJR-71" value="" style="endArrow=none;html=1;rounded=0;dashed=1;dashPattern=1 2;exitX=0.5;exitY=1;exitDx=0;exitDy=0;entryX=0.5;entryY=0;entryDx=0;entryDy=0;" edge="1" parent="1" source="nQ1JPdh1V9zCmf0JBxJR-57" target="nQ1JPdh1V9zCmf0JBxJR-45">
          <mxGeometry relative="1" as="geometry">
            <mxPoint x="470" y="390" as="sourcePoint" />
            <mxPoint x="510" y="530" as="targetPoint" />
          </mxGeometry>
        </mxCell>
        <mxCell id="nQ1JPdh1V9zCmf0JBxJR-72" value="N" style="resizable=0;html=1;whiteSpace=wrap;align=right;verticalAlign=bottom;" connectable="0" vertex="1" parent="nQ1JPdh1V9zCmf0JBxJR-71">
          <mxGeometry x="1" relative="1" as="geometry">
            <mxPoint x="35" y="-40" as="offset" />
          </mxGeometry>
        </mxCell>
      </root>
    </mxGraphModel>
  </diagram>
</mxfile>
